# xmcd
#
# Track frame offsets:
#	150
#	13523
#	28186
#	46816
#	64981
#	82801
#	97749
#	107424
#	128559
#	144302
#	165722
#	181727
#
# Disc length: 2603 seconds
#
# Revision: 0
# Processed by: cddbd v1.5.2PL0 Copyright (c) Steve Scherf et al.
# Submitted via: audiograbber 1.83.01
#
DISCID=860a290c
DTITLE=John Denver - Greatest Hits Vol 2
DYEAR=1977
DGENRE=Country
TTITLE0=Annie's Song
TTITLE1=Welcome to My Morning
TTITLE2=Fly Away
TTITLE3=Like a Sad Song
TTITLE4=Looking For Space
TTITLE5=Thank God I'm a Country Boy
TTITLE6=Grandma's Feather Bed
TTITLE7=Back Home Again
TTITLE8=I'm Sorry
TTITLE9=My Sweet Lady
TTITLE10=Calypso
TTITLE11=This Old Guitar
EXTD=
EXTT0=
EXTT1=
EXTT2=
EXTT3=
EXTT4=
EXTT5=
EXTT6=
EXTT7=
EXTT8=
EXTT9=
EXTT10=
EXTT11=
PLAYORDER=
